D:\school\WTK\thesis\model\3dpredictsim\Results\batch_windlass\Pog_s1_tmt_bCst_d00_k500_WL20_ig24_act_TTC_GRF.mot
nRows=15
nColumns=19

name D:\school\WTK\thesis\model\3dpredictsim\Results\batch_windlass\Pog_s1_tmt_bCst_d00_k500_WL20_ig24_act_TTC_GRF.mot
datacolumns 19
datarows 15
range 0.6077606437 0.7779336240
endheader
time 	ground_force_vx	ground_force_vy	ground_force_vz	ground_force_px	ground_force_py	ground_force_pz	1_ground_force_vx	1_ground_force_vy	1_ground_force_vz	1_ground_force_px	1_ground_force_py	1_ground_force_pz	ground_torque_x	ground_torque_y	ground_torque_z	1_ground_torque_x	1_ground_torque_y	1_ground_torque_z
        0.6077606437	      117.2978127529	      452.0250784225	       -3.6308026542	        0.3842721854	        0.0000000000	        0.0404785028	      -33.7210761653	       24.3822660500	       -3.6043753572	        0.9445535187	        0.0000000000	       -0.0698025275	        0.0000000000	        0.0000000000	        0.0000000000	        0.0000000000	        0.0000000000	        0.0000000000	
        0.6199158566	       84.7200410117	      345.8774037179	        2.0649038317	        0.3927859093	        0.0000000000	        0.0372294201	      -87.6637330624	       74.6107738997	      -11.0675366303	        0.9590614067	        0.0000000000	       -0.0691286957	        0.0000000000	        0.0000000000	        0.0000000000	        0.0000000000	        0.0000000000	        0.0000000000	
        0.6320710695	       50.4150472384	      241.3502030750	       13.6138647975	        0.4053215375	        0.0000000000	        0.0321601315	     -152.9048723275	      253.4125770436	      -15.6179543623	        0.9755450824	        0.0000000000	       -0.0693666824	        0.0000000000	        0.0000000000	        0.0000000000	        0.0000000000	        0.0000000000	        0.0000000000	
        0.6442262823	       29.5580576849	      198.4196651638	       21.0116421405	        0.4077358974	        0.0000000000	        0.0310957034	     -124.1413232938	      601.6943309298	       13.6269074311	        0.9881884284	        0.0000000000	       -0.0672859263	        0.0000000000	        0.0000000000	        0.0000000000	        0.0000000000	        0.0000000000	        0.0000000000	
        0.6563814952	       22.4183046972	      150.5970806601	       20.2958811348	        0.4078734090	        0.0000000000	        0.0311379348	     -170.2812602004	      884.4933831760	       23.0508750331	        1.0008422262	        0.0000000000	       -0.0648784073	        0.0000000000	        0.0000000000	        0.0000000000	        0.0000000000	        0.0000000000	        0.0000000000	
        0.6685367081	       -0.2534240710	       86.3983489932	       16.9144621623	        0.4067292012	        0.0000000000	        0.0313660821	     -185.7010542316	      933.6889722529	       21.6595352384	        1.0063875459	        0.0000000000	       -0.0632611184	        0.0000000000	        0.0000000000	        0.0000000000	        0.0000000000	        0.0000000000	        0.0000000000	
        0.6806919210	      -12.6226018093	       17.0913691513	        3.6768735531	        0.4019248076	        0.0000000000	        0.0308033648	     -168.0944351745	      888.4151807671	       20.6208402017	        1.0093633101	        0.0000000000	       -0.0623649729	        0.0000000000	        0.0000000000	        0.0000000000	        0.0000000000	        0.0000000000	        0.0000000000	
        0.6928471338	        0.0519121903	       -0.0444289459	        0.0016350578	        0.0000000000	        0.0000000000	        0.0000000000	     -144.1374400806	      826.2001608000	       20.8907044428	        1.0120561260	        0.0000000000	       -0.0617731485	        0.0000000000	        0.0000000000	        0.0000000000	        0.0000000000	        0.0000000000	        0.0000000000	
        0.7050023467	        0.3598968396	       -0.2568830174	        0.0310190937	        0.0000000000	        0.0000000000	        0.0000000000	     -124.5195683371	      767.3819164395	       21.1596501110	        1.0148017375	        0.0000000000	       -0.0613721578	        0.0000000000	        0.0000000000	        0.0000000000	        0.0000000000	        0.0000000000	        0.0000000000	
        0.7171575596	       -2.3393273274	        1.4883747192	       -0.2315193036	        0.0000000000	        0.0000000000	        0.0000000000	     -110.1019116606	      724.8385722400	       18.9576404306	        1.0172180096	        0.0000000000	       -0.0611806250	        0.0000000000	        0.0000000000	        0.0000000000	        0.0000000000	        0.0000000000	        0.0000000000	
        0.7293127725	       -0.2963482660	        0.1775384091	       -0.0235050441	        0.0000000000	        0.0000000000	        0.0000000000	      -95.5347307702	      695.5761754195	       17.3793566805	        1.0192275525	        0.0000000000	       -0.0611319167	        0.0000000000	        0.0000000000	        0.0000000000	        0.0000000000	        0.0000000000	        0.0000000000	
        0.7414679853	       -0.2057720139	        0.1190421681	       -0.0122426832	        0.0000000000	        0.0000000000	        0.0000000000	      -81.1096881806	      669.9561679020	       18.0049481775	        1.0214614232	        0.0000000000	       -0.0610898224	        0.0000000000	        0.0000000000	        0.0000000000	        0.0000000000	        0.0000000000	        0.0000000000	
        0.7536231982	       -0.1453385456	        0.0820304142	       -0.0060468941	        0.0000000000	        0.0000000000	        0.0000000000	      -68.3913000124	      649.7800627433	       19.5263653910	        1.0250332785	        0.0000000000	       -0.0609184540	        0.0000000000	        0.0000000000	        0.0000000000	        0.0000000000	        0.0000000000	        0.0000000000	
        0.7657784111	       -0.0773924979	        0.0415440852	       -0.0031233497	        0.0000000000	        0.0000000000	        0.0000000000	      -59.2931801470	      633.2921339970	       20.7007806805	        1.0297574121	        0.0000000000	       -0.0605772375	        0.0000000000	        0.0000000000	        0.0000000000	        0.0000000000	        0.0000000000	        0.0000000000	
        0.7779336240	       -0.0403800569	        0.0205268481	       -0.0017374524	        0.0000000000	        0.0000000000	        0.0000000000	      -52.3651707652	      620.2535025564	       21.4512040207	        1.0349874215	        0.0000000000	       -0.0601351643	        0.0000000000	        0.0000000000	        0.0000000000	        0.0000000000	        0.0000000000	        0.0000000000	
